# xmcd
#
# Track frame offsets:
#	150
#	28998
#	68046
#	103494
#	173292
#	180315
#	244113
#	306936
#
# Disc length: 4709 seconds
#
# Revision: 0
# Processed by: cddbd v1.5.2PL0 Copyright (c) Steve Scherf et al.
# Submitted via: EasyCDDAExtractor 12.0.1.1
#
DISCID=64126308
DTITLE=Santana - The Fillmore Performance - San Francisco 1968
DYEAR=1968
DGENRE=Classic Rock
TTITLE0=Soul Sacrifice
TTITLE1=Santana Jam
TTITLE2=Evil Ways
TTITLE3=Medley: We've Got To Get Ourselves Together/Jingo-Lo-Ba
TTITLE4=Rock Me
TTITLE5=Just Ain't Good Enough
TTITLE6=Funky Piano
TTITLE7=The Way You Do Me
EXTD=
EXTT0=
EXTT1=
EXTT2=
EXTT3=
EXTT4=
EXTT5=
EXTT6=
EXTT7=
PLAYORDER=
